<?xml version="1.0" encoding="UTF-8"?>
<svg width="56px" height="56px" viewBox="0 0 56 56" version="1.1" xmlns="http://www.w3.org/2000/svg" xmlns:xlink="http://www.w3.org/1999/xlink">
    <title>icon-water-mill</title>
    <g id="Page-1" stroke="none" stroke-width="1" fill="none" fill-rule="evenodd">
        <g id="Main-page-2" transform="translate(-672.000000, -2400.000000)" fill="#007545" fill-rule="nonzero">
            <g id="icon-water-mill" transform="translate(672.000000, 2400.000000)">
                <path d="M35.7983501,31.2514341 C35.7899576,31.2422024 35.7874399,31.230453 35.778208,31.2220606 C35.7689762,31.2136682 35.7580659,31.2103112 35.7488341,31.2019188 C31.464861,26.9326937 24.535139,26.9326937 20.2511659,31.2019188 C20.2419341,31.2103112 20.2301845,31.212829 20.221792,31.2220606 C20.213819,31.2312923 20.2100424,31.2422024 20.2016499,31.2514341 C15.9327834,35.5353459 15.9327834,42.4649689 20.2016499,46.7488807 C20.2100424,46.7576927 20.2125601,46.7698617 20.221792,46.7782541 C20.2310238,46.7862269 20.2419341,46.7900035 20.2511659,46.7983959 C24.535139,51.0672014 31.464861,51.0672014 35.7488341,46.7983959 C35.7580659,46.7900035 35.7698155,46.7870661 35.778208,46.7782541 C35.786181,46.7690225 35.7899576,46.7576927 35.7983501,46.7488807 C40.0672166,42.4649689 40.0672166,35.5353459 35.7983501,31.2514341 Z M35.0933766,44.7972229 L31.1513996,40.8553022 C31.3238663,40.5624067 31.4535311,40.2464321 31.5366172,39.9166098 L37.1201756,39.9166098 C36.9414144,41.7079723 36.2360212,43.4061789 35.0933766,44.7972229 Z M18.8798244,39.9166098 L24.4633828,39.9166098 C24.5485671,40.2447536 24.6794907,40.5594694 24.8527967,40.8506865 L20.9112393,44.7972229 C19.7669162,43.4065985 19.0602642,41.708392 18.8798244,39.9166098 Z M20.9066234,33.2030919 L24.8527967,37.1492086 C24.6794907,37.4408453 24.5485671,37.7551416 24.4633828,38.0832853 L18.8798244,38.0832853 C19.0585856,36.2923424 19.7639788,34.5941358 20.9066234,33.2030919 Z M28,40.833482 C26.9874398,40.833482 26.1666492,40.012703 26.1666492,39.0001573 C26.1666492,37.9876117 26.9874398,37.1668328 28,37.1668328 C29.0125602,37.1668328 29.8333508,37.9876117 29.8333508,39.0001573 C29.8333508,40.012703 29.0125602,40.833482 28,40.833482 Z M29.8509752,35.8529991 C29.5593343,35.6796956 29.2450336,35.5487738 28.9168852,35.4635907 L28.9168852,29.8801124 C30.7078537,30.0588709 32.4060846,30.7642539 33.7971485,31.9068822 L29.8509752,35.8529991 Z M27.0831148,35.4635907 C26.7549664,35.5487738 26.4406657,35.6796956 26.1490248,35.8529991 L22.2028515,31.9114981 C23.5934958,30.7671913 25.2917266,30.0601298 27.0831148,29.8801124 L27.0831148,35.4635907 Z M26.1490248,42.146896 C26.4406657,42.3201995 26.7549664,42.451541 27.0831148,42.536724 L27.0831148,48.1202024 C25.2921463,47.9410242 23.5939154,47.2360608 22.2028515,46.0934325 L26.1490248,42.146896 Z M28.9168852,42.536724 C29.2450336,42.451541 29.5593343,42.3201995 29.8509752,42.146896 L33.7971485,46.0934325 C32.4060846,47.2360608 30.7078537,47.9410242 28.9168852,48.1202024 L28.9168852,42.536724 Z M31.5366172,38.0832853 C31.4514329,37.7551416 31.3205093,37.4408453 31.1472033,37.1492086 L35.0933766,33.2077077 C36.2351819,34.5974927 36.9401554,36.2936013 37.1201756,38.0832853 L31.5366172,38.0832853 Z" id="Shape"></path>
                <path d="M5.99980385,42 C5.03668588,42.0205981 4.0840962,42.2068964 3.18414857,42.5511137 C2.48744436,42.8266707 1.74862673,42.978639 1.00019615,43.0001526 C0.447685005,43.0001526 0,43.4478181 0,43.9998474 C0,44.5523345 0.447685005,45 1.00019615,45 C1.96331412,44.9794019 2.91590368,44.7931034 3.81585143,44.4488862 C4.5120978,44.1733292 5.25137327,44.021361 5.99980385,43.9998474 C6.55231488,43.9998474 7,43.5521818 7,43.0001526 C7,42.4476655 6.55231488,42 5.99980385,42 L5.99980385,42 Z" id="Path"></path>
                <path d="M8.99980375,47 C8.03668579,47.0205982 7.08409625,47.2068965 6.18414864,47.5511138 C5.48790216,47.8266708 4.74862682,47.978639 4.00019625,48.0001525 C3.44768512,48.0001525 3,48.4478181 3,48.9998474 C3,49.5523344 3.44768512,50 4.00019625,50 C4.96331421,49.9794019 5.91590375,49.7931035 6.81585136,49.4488862 C7.51255557,49.1733292 8.25137318,49.021361 8.99980375,48.9998474 C9.55231488,48.9998474 10,48.5521819 10,48.0001525 C10,47.4476656 9.55231488,47 8.99980375,47 L8.99980375,47 Z" id="Path"></path>
                <path d="M15.0002616,50 C14.0366859,50.0205981 13.0840963,50.2068966 12.1841486,50.5511138 C11.4879022,50.8266707 10.7486267,50.978639 10.0001963,51.0001526 C9.44768512,51.0001526 9,51.4478182 9,51.9998474 C9,52.5523345 9.44768512,53 10.0001963,53 C10.9633142,52.9794019 11.9159038,52.7931034 12.8163093,52.4488862 C13.5125556,52.1733293 14.2513733,52.021361 15.0002616,51.9998474 C15.552315,51.9998474 16,51.5521818 16,51.0001526 C16,50.4476655 15.552315,50 15.0002616,50 L15.0002616,50 Z" id="Path"></path>
                <path d="M1.00019615,56 C1.96331412,55.9798564 2.91590368,55.7935297 3.81585143,55.4492599 C4.5120978,55.1736609 5.25137327,55.0216694 5.99980385,55.0001526 C6.55231488,55.0001526 7,54.5524187 7,53.9998474 C7,53.4477339 6.55231488,53 5.99980385,53 C5.03668588,53.0201434 4.0840962,53.2069281 3.18414857,53.5507401 C2.48744436,53.826339 1.74862673,53.9783306 1.00019615,53.9998474 C0.447685005,53.9998474 0,54.4475813 0,55.0001526 C0,55.5522661 0.447685005,56 1.00019615,56 Z" id="Path"></path>
                <path d="M54.9998038,42 C54.0366859,42.0205981 53.0840963,42.2068964 52.1841486,42.5511137 C51.4879022,42.8266707 50.7486267,42.978639 50.0001962,43.0001526 C49.4476851,43.0001526 49,43.4478181 49,43.9998474 C49,44.5523345 49.4476851,45 50.0001962,45 C50.9633141,44.9794019 51.9159038,44.7931034 52.8158514,44.4488862 C53.5125556,44.1733292 54.2513733,44.021361 54.9998038,43.9998474 C55.552315,43.9998474 56,43.5521818 56,43.0001526 C56,42.4476655 55.552315,42 54.9998038,42 L54.9998038,42 Z" id="Path"></path>
                <path d="M47.816101,49.4488862 C48.512393,49.1733292 49.2512589,49.021361 50.0001962,48.9998474 C50.5522857,48.9998474 51,48.5521819 51,48.0001525 C51,47.4476656 50.5522857,47 50.0001962,47 C49.0365575,47.0205982 48.0839056,47.2068965 47.183899,47.5511138 C46.4876071,47.8266708 45.7482833,47.978639 44.9998038,48.0001525 C44.4477144,48.0001525 44,48.4478181 44,48.9998474 C44,49.5523344 44.4477144,50 44.9998038,50 C45.9634426,49.9794019 46.9160945,49.7931035 47.816101,49.4488862 L47.816101,49.4488862 Z" id="Path"></path>
                <path d="M54.9998038,50 C54.0366859,50.0205981 53.0840963,50.2068966 52.1841486,50.5511138 C51.4879022,50.8266707 50.7486267,50.978639 50.0001962,51.0001526 C49.4476851,51.0001526 49,51.4478182 49,51.9998474 C49,52.5523345 49.4476851,53 50.0001962,53 C50.9633141,52.9794019 51.9159038,52.7931034 52.8158514,52.4488862 C53.5125556,52.1733293 54.2513733,52.021361 54.9998038,51.9998474 C55.552315,51.9998474 56,51.5521818 56,51.0001526 C56,50.4476655 55.552315,50 54.9998038,50 L54.9998038,50 Z" id="Path"></path>
                <path d="M41.8158515,55.4492599 C42.5120979,55.1736609 43.2513734,55.0216694 43.9998038,55.0001526 C44.552315,55.0001526 45,54.5524187 45,53.9998474 C45,53.4477339 44.552315,53 43.9998038,53 C43.0366858,53.0201434 42.0840963,53.2069281 41.1836908,53.5507401 C40.4874444,53.826339 39.7486266,53.9783306 38.9997384,53.9998474 C38.447685,53.9998474 38,54.4475813 38,55.0001526 C38,55.5522661 38.447685,56 38.9997384,56 C39.9633142,55.9798564 40.9159037,55.7935297 41.8158515,55.4492599 L41.8158515,55.4492599 Z" id="Path"></path>
                <path d="M54.8793483,11.4285824 L29.1018508,0.224630265 C28.3973328,-0.0748767549 27.6018128,-0.0748767549 26.8972948,0.224630265 L1.11979728,11.4294369 C0.439204725,11.7268075 -0.000851998364,12.3993096 1.23855216e-06,13.1423089 L1.23855216e-06,15.1777597 C1.23855216e-06,15.8053998 0.315732526,16.3903143 0.839528144,16.7355377 C1.36332387,17.0807611 2.0255451,17.1397225 2.60189121,16.8923408 L2.80013035,16.8094531 L2.80013035,38.2662839 L0.933520842,38.2662839 C0.417842693,38.2662839 1.23855216e-06,38.684141 1.23855216e-06,39.1998397 C1.23855216e-06,39.7151113 0.417842693,40.1329683 0.933520842,40.1329683 L13.1141201,40.1329683 C13.2354561,42.1167212 13.7545521,44.0560393 14.6410742,45.8351361 L13.791722,46.3251995 C13.5003446,46.4905478 13.3204767,46.7994544 13.3196223,47.1344237 C13.3187679,47.4693929 13.4977812,47.7787268 13.788304,47.9457842 C14.0783997,48.1124142 14.4359992,48.1111325 14.7248131,47.9415115 L15.5647661,47.4561479 C16.6683258,49.1100586 18.0876155,50.5298326 19.7414598,51.6330093 L19.2561157,52.472996 C19.0869288,52.7618215 19.0852199,53.1194354 19.2522706,53.4099699 C19.4188939,53.7005045 19.7286426,53.8790977 20.0635984,53.8782432 C20.3985542,53.877816 20.7070212,53.6975136 20.8727901,53.4065519 L21.3628338,52.5571656 C23.1418593,53.4441504 25.081954,53.9641218 27.0660544,54.08589 L27.0660544,55.0668714 C27.0660544,55.5821429 27.4843219,56 27.9995728,56 C28.5148237,56 28.9330911,55.5821429 28.9330911,55.0668714 L28.9330911,54.08589 C30.9167643,53.964549 32.8555774,53.4450049 34.6346027,52.5588746 L35.1246465,53.4082609 C35.3839809,53.8508988 35.9522096,54.0008659 36.3965387,53.7445119 C36.8408678,53.4881579 36.9946741,52.920761 36.7408937,52.474705 L36.2555496,51.6347183 C37.9098211,50.5315416 39.3291109,49.1121949 40.4322433,47.4582843 L41.2721962,47.9432206 C41.5614374,48.1128414 41.9186097,48.1145506 42.2091326,47.9474932 C42.4996555,47.780863 42.6782415,47.471102 42.6778143,47.1361327 C42.6769598,46.8011635 42.4966648,46.4922569 42.2057147,46.3269086 L41.3563625,45.8368452 C42.2433117,44.0573211 42.7632622,42.1175756 42.8850255,40.1329683 L55.0656247,40.1329683 C55.5813029,40.1329683 55.9991431,39.7151113 55.9991431,39.1998397 C55.9991431,38.684141 55.5813029,38.2662839 55.0656247,38.2662839 L53.1990152,38.2662839 L53.1990152,16.8094531 L53.3972544,16.8944772 C53.6296727,16.994028 53.8804622,17.0452988 54.133388,17.045726 C55.1643171,17.045726 56.0000012,16.2100119 56.0000012,15.1790415 L56.0000012,13.1423089 C56.0008521,12.3988823 55.5607954,11.7255257 54.8793483,11.4285824 Z M27.9995728,52.266631 C20.7830697,52.266631 14.933306,46.4166325 14.933306,39.1998397 C14.933306,31.983047 20.7830697,26.1326212 27.9995728,26.1326212 C35.2160758,26.1326212 41.0658396,31.983047 41.0658396,39.1998397 C41.0581492,46.4132144 35.2126579,52.2589403 27.9995728,52.266631 L27.9995728,52.266631 Z M51.3324056,32.6662305 L44.7994858,32.6662305 C44.2838078,32.6662305 43.8659675,33.0840876 43.8659675,33.5997863 C43.8659675,34.1150579 44.2838078,34.5329149 44.7994858,34.5329149 L51.3324056,34.5329149 L51.3324056,38.2662839 L42.8850255,38.2662839 C42.7636894,36.2825311 42.2445935,34.3436403 41.3580714,32.5645434 L42.2074236,32.07448 C42.6500438,31.8151351 42.8004321,31.2468838 42.5436611,30.8025368 C42.2873173,30.3581899 41.7203706,30.2043775 41.2743325,30.4577407 L40.4343795,30.9431043 C39.3308197,29.2891936 37.91153,27.8698469 36.2576858,26.7666701 L36.7430299,25.9266835 C36.9122167,25.6374308 36.9139257,25.2798169 36.746875,24.9897095 C36.5802517,24.699175 36.270503,24.5201545 35.9355472,24.521009 C35.6005914,24.5218635 35.2921244,24.7021658 35.1263555,24.9931276 L34.6363118,25.842514 C32.8572863,24.9551018 30.9171916,24.4351304 28.9330911,24.3137895 L28.9330911,23.3328082 C28.9330911,22.8171093 28.5148237,22.3992523 27.9995728,22.3992523 C27.4843219,22.3992523 27.0660544,22.8171093 27.0660544,23.3328082 L27.0660544,24.3137895 C25.0823812,24.4351304 23.1435682,24.9542473 21.3645428,25.8408049 L20.8744991,24.9914187 C20.6151646,24.5487806 20.046936,24.3983863 19.6026069,24.6551676 C19.1582778,24.9115216 19.0044715,25.4784912 19.2582519,25.9245473 L19.743596,26.7645339 C18.0893245,27.8681379 16.6700347,29.2874846 15.5669023,30.9413952 L14.7269494,30.4560316 C14.2809112,30.2026685 13.7139644,30.3564809 13.4571934,30.8008278 C13.2008496,31.2451748 13.3508107,31.8129989 13.7934309,32.072771 L14.6427831,32.5628344 C13.7558338,34.3419312 13.2358833,36.2816766 13.1141201,38.2662839 L4.66673997,38.2662839 L4.66673997,34.5329149 L11.1996598,34.5329149 C11.7153378,34.5329149 12.1331781,34.1150579 12.1331781,33.5997863 C12.1331781,33.0840876 11.7153378,32.6662305 11.1996598,32.6662305 L4.66673997,32.6662305 L4.66673997,16.0087741 L27.9995728,6.00114067 L51.3324056,16.0087741 L51.3324056,32.6662305 Z M28.367426,4.12804736 C28.1324443,4.02721478 27.8667013,4.02721478 27.6317196,4.12804736 L1.86661199,15.1777597 L1.86661199,13.1405999 L27.6338557,1.94006589 C27.8667013,1.84136957 28.1298808,1.84136957 28.3627263,1.94006589 L54.1325336,13.1423089 L54.1325336,15.1790415 L28.367426,4.12804736 Z" id="Shape"></path>
                <path d="M16.0906475,24.4614356 L15.1817111,24.4614356 L15.1817111,21.2305066 C15.1817111,19.4464387 13.756712,18 11.9996015,18 C10.2420748,18 8.81749183,19.4464387 8.81749183,21.2305066 L8.81749183,24.6313066 C7.56603968,25.0788025 6.81483533,26.3777662 7.03957234,27.7054642 C7.26430935,29.0331622 8.39964745,30.0025254 9.72642819,30 L12.4540697,30 C12.9559823,30 13.3630061,29.5867218 13.3630061,29.077109 C13.3630061,28.5670734 12.9559823,28.1538053 12.4540697,28.1538053 L9.72642819,28.1538053 C9.22451558,28.1538053 8.81749183,27.7405371 8.81749183,27.2309242 C8.81749183,26.7208887 9.22451558,26.3076204 9.72642819,26.3076204 L16.0906475,26.3076204 C16.5929764,26.3076204 17,25.8943523 17,25.3847393 C17,24.8747039 16.5929764,24.4614356 16.0906475,24.4614356 L16.0906475,24.4614356 Z M10.6357808,24.4614356 L10.6357808,21.2305066 C10.6357808,20.4660871 11.2463163,19.8461848 11.9996015,19.8461848 C12.7524705,19.8461848 13.3630061,20.4660871 13.3630061,21.2305066 L13.3630061,24.4614356 L10.6357808,24.4614356 Z" id="Shape"></path>
                <path d="M39.9093525,26.3076204 L46.2735718,26.3076204 C46.7754844,26.3076204 47.1825082,26.7208887 47.1825082,27.2309242 C47.1825082,27.7405371 46.7754844,28.1538053 46.2735718,28.1538053 L43.5459303,28.1538053 C43.0440177,28.1538053 42.6369939,28.5670734 42.6369939,29.077109 C42.6369939,29.5867218 43.0440177,30 43.5459303,30 L46.2735718,30 C47.6003525,30.0025254 48.7356906,29.0331622 48.9604277,27.7054642 C49.1851647,26.3777662 48.4339603,25.0788025 47.1825082,24.6313066 L47.1825082,21.2305066 C47.1825082,19.4464387 45.7579252,18 44.0003985,18 C42.243288,18 40.8182889,19.4464387 40.8182889,21.2305066 L40.8182889,24.4614356 L39.9093525,24.4614356 C39.4070236,24.4614356 39,24.8747039 39,25.3847393 C39,25.8943523 39.4070236,26.3076204 39.9093525,26.3076204 L39.9093525,26.3076204 Z M42.6369939,21.2305066 C42.6369939,20.4660871 43.2475295,19.8461848 44.0003985,19.8461848 C44.7536837,19.8461848 45.3642192,20.4660871 45.3642192,21.2305066 L45.3642192,24.4614356 L42.6369939,24.4614356 L42.6369939,21.2305066 Z" id="Shape"></path>
                <path d="M23,14.5 C23,17.5376517 25.4623484,20 28.5,20 C31.5376516,20 34,17.5376517 34,14.5 C34,11.4623484 31.5376516,9 28.5,9 C25.4636072,9.00293739 23.0029374,11.4636073 23,14.5 L23,14.5 Z M27.5831236,10.9634165 L27.5831236,13.5831236 L24.9634165,13.5831236 C25.2986954,12.3007554 26.3007554,11.2986953 27.5831236,10.9634165 Z M24.9634165,15.4164569 L27.5831236,15.4164569 L27.5831236,18.0365836 C26.3007554,17.7013047 25.2986954,16.6992447 24.9634165,15.4164569 Z M29.4168764,18.0365836 L29.4168764,15.4164569 L32.0365835,15.4164569 C31.7013046,16.6992447 30.6992446,17.7013047 29.4168764,18.0365836 Z M32.0365835,13.5831236 L29.4168764,13.5831236 L29.4168764,10.9634165 C30.6992446,11.2986953 31.7013046,12.3007554 32.0365835,13.5831236 Z" id="Shape"></path>
            </g>
        </g>
    </g>
</svg>