<?xml version="1.0" encoding="UTF-8"?>
<svg width="48px" height="44px" viewBox="0 0 48 44" version="1.1" xmlns="http://www.w3.org/2000/svg" xmlns:xlink="http://www.w3.org/1999/xlink">
    <title>gallery-icon</title>
    <g id="Page-1" stroke="none" stroke-width="1" fill="none" fill-rule="evenodd">
        <g id="-" transform="translate(-550.000000, -61.000000)" fill="#007545" fill-rule="nonzero">
            <g id="gallery-icon" transform="translate(550.000000, 61.000000)">
                <path d="M34.5927095,44 C34.2597162,44 33.9187945,43.9574095 33.5818369,43.8661442 L2.93257509,35.4677067 C0.83154569,34.8754961 -0.421143534,32.6486223 0.129881156,30.498817 L3.99696451,15.7503414 C4.13967594,15.2088338 4.68277221,14.8944755 5.21001167,15.0323875 C5.73923322,15.1763839 6.05240553,15.7341164 5.9116762,16.2735959 L2.04657495,31.0180153 C1.77106261,32.0929179 2.40137143,33.2124392 3.45386823,33.5105726 L34.0912374,41.9049539 C35.1437342,42.1888904 36.2299268,41.5480051 36.503457,40.4771587 L38.0514796,34.6077845 C38.1941911,34.066277 38.7372873,33.7438062 39.2665089,33.8918588 C39.7957305,34.0378833 40.1069207,34.5956158 39.9661913,35.1350953 L38.4201508,40.9963569 C37.9543566,42.8013821 36.348853,44 34.5927095,44 L34.5927095,44 Z" id="Path"></path>
                <path d="M44,32 L12,32 C9.794,32 8,30.206 8,28 L8,4 C8,1.794 9.794,0 12,0 L44,0 C46.206,0 48,1.794 48,4 L48,28 C48,30.206 46.206,32 44,32 Z M12,2 C10.898,2 10,2.898 10,4 L10,28 C10,29.102 10.898,30 12,30 L44,30 C45.102,30 46,29.102 46,28 L46,4 C46,2.898 45.102,2 44,2 L12,2 Z" id="Shape"></path>
                <path d="M18,14 C15.794,14 14,12.206 14,10 C14,7.794 15.794,6 18,6 C20.206,6 22,7.794 22,10 C22,12.206 20.206,14 18,14 Z M18,8 C16.898,8 16,8.898 16,10 C16,11.102 16.898,12 18,12 C19.102,12 20,11.102 20,10 C20,8.898 19.102,8 18,8 Z" id="Shape"></path>
                <path d="M9.00396568,30 C8.74707891,30 8.49019214,29.9007463 8.2935132,29.7042644 C7.90216227,29.3092751 7.90216227,28.6671642 8.2935132,28.2721748 L17.7722336,18.7053305 C18.9081548,17.5588486 20.8930065,17.5588486 22.0289277,18.7053305 L24.8506683,21.5533049 L32.6616316,12.0938166 C33.2295922,11.4071429 34.0644742,11.0081023 34.9535433,11 L34.9756195,11 C35.8546539,11 36.687529,11.3848614 37.2615104,12.0593817 L47.7577432,24.4195096 C48.1189902,24.8428571 48.070824,25.4829424 47.6493691,25.847548 C47.2299212,26.2121535 46.5977389,26.165565 46.2344849,25.7381663 L35.7382521,13.3780384 C35.5435801,13.1511727 35.2746517,13.0255864 34.9756195,13.0255864 C34.766899,13.0073561 34.3996312,13.1531983 34.2049592,13.3901919 L25.6895641,23.702452 C25.5089406,23.9212154 25.2460331,24.0528785 24.9630563,24.065032 C24.6780725,24.0852878 24.4071372,23.971855 24.2084514,23.7692964 L20.6100297,20.13742 C20.2307203,19.7566098 19.570441,19.7566098 19.1911316,20.13742 L9.71241122,29.7042644 C9.51773922,29.9007463 9.26085245,30 9.00396568,30 L9.00396568,30 Z" id="Path"></path>
            </g>
        </g>
    </g>
</svg>