<?xml version="1.0" encoding="UTF-8"?>
<svg width="48px" height="45px" viewBox="0 0 48 45" version="1.1" xmlns="http://www.w3.org/2000/svg" xmlns:xlink="http://www.w3.org/1999/xlink">
    <title>home-icon</title>
    <g id="Page-1" stroke="none" stroke-width="1" fill="none" fill-rule="evenodd">
        <g id="-" transform="translate(-212.000000, -61.000000)" fill="#007545" fill-rule="nonzero">
            <g id="house" transform="translate(212.000000, 61.000000)">
                <path d="M47.6355395,20.691426 L38.7791558,12.7930279 C38.7895021,12.7390033 38.7998483,12.6849786 38.8101945,12.6201491 L38.8101945,2.2906435 C38.7998483,1.67476294 38.3342674,1.17773652 37.7445316,1.15612667 L32.7990276,1.15612667 C32.2299843,1.15612667 31.7644033,1.68556786 31.7644033,2.2906435 L31.7644033,6.56939269 L24.6772272,0.259318132 C24.2944162,-0.0864393774 23.7253728,-0.0864393774 23.3322156,0.259318132 L0.373903274,20.6806211 C-0.0709851579,21.0587933 -0.122716371,21.7395034 0.23940212,22.2041151 C0.601520611,22.6687267 1.2533339,22.7227513 1.69822233,22.3445791 C1.70856857,22.3337741 1.70856857,22.3337741 1.71891481,22.3229692 L24.0047214,2.50674195 L31.9816744,9.60557582 L36.7512923,13.8411053 L46.3008742,22.3337741 C46.7354164,22.7227513 47.3872297,22.6687267 47.7596944,22.21492 C48.1218129,21.7611133 48.0700817,21.0804032 47.6355395,20.691426 Z M36.7305998,10.966996 L33.8336519,8.41703438 L33.8336519,3.32791603 L36.7305998,3.32791603 L36.7305998,10.966996 Z" id="Shape"></path>
                <path d="M42.9523124,22.4164664 L40.0623548,19.8546226 L24.6663886,6.20213032 C24.2858604,5.86055115 23.7202103,5.86055115 23.3293976,6.20213032 L7.93343136,19.8546226 L5.04347377,22.4164664 C4.61152282,22.800743 4.56010008,23.4732269 4.93034376,23.9215496 C5.29030289,24.3698723 5.92794478,24.423244 6.34961119,24.0496418 L6.35989573,24.0389674 L7.64546405,22.8861378 L7.64546405,42.9005421 C7.6557486,43.4983056 8.12883774,43.9893257 8.70477235,44 L39.2807293,44 C39.8566639,43.9893257 40.3297531,43.5089799 40.3400376,42.9005421 L40.3400376,22.8861378 L41.6256059,24.0389674 C41.8107278,24.1990827 42.0369878,24.2951518 42.2838169,24.2951518 C42.5820687,24.2951518 42.8700361,24.1563853 43.0654424,23.9215496 C43.4459707,23.4625526 43.3842634,22.7900686 42.9523124,22.4164664 Z M28.1117117,41.8544559 L19.8840745,41.8544559 L19.8840745,30.326159 L28.1117117,30.326159 L28.1117117,41.8544559 Z M30.168621,41.8544559 L30.168621,29.2907471 C30.168621,28.7036579 29.7469546,28.1912892 29.1813046,28.1912892 L18.8144816,28.1912892 C18.2488316,28.1912892 17.8271652,28.7036579 17.8271652,29.2907471 L17.8271652,41.8544559 L9.70237337,41.8544559 L9.70237337,21.0608241 L23.9978931,8.42239491 L38.2934128,21.0608241 L38.2934128,41.8544559 L30.168621,41.8544559 Z" id="Shape"></path>
            </g>
        </g>
    </g>
</svg>