<?xml version="1.0" encoding="UTF-8"?>
<svg width="70px" height="70px" viewBox="0 0 70 70" version="1.1" xmlns="http://www.w3.org/2000/svg" xmlns:xlink="http://www.w3.org/1999/xlink">
    <title>icon-project</title>
    <g id="Page-1" stroke="none" stroke-width="1" fill="none" fill-rule="evenodd">
        <g id="Main-page-2" transform="translate(-280.000000, -5474.000000)" fill="#007545" fill-rule="nonzero">
            <g id="icon-project" transform="translate(280.000000, 5474.000000)">
                <path d="M47.6428571,32.7307692 C48.3922714,32.7307692 49,32.1279615 49,31.3846154 L49,27.3461538 C49,26.6028077 48.3922714,26 47.6428571,26 L31.3571429,26 C30.6077286,26 30,26.6028077 30,27.3461538 L30,59.6538462 C30,60.3971923 30.6077286,61 31.3571429,61 L47.6428571,61 C48.3922714,61 49,60.3971923 49,59.6538462 C49,58.9105 48.3922714,58.3076923 47.6428571,58.3076923 L32.7142857,58.3076923 L32.7142857,52.9230769 L39.5,52.9230769 C40.2494143,52.9230769 40.8571429,52.3202692 40.8571429,51.5769231 C40.8571429,50.8335769 40.2494143,50.2307692 39.5,50.2307692 L32.7142857,50.2307692 L32.7142857,44.8461538 L46.2857143,44.8461538 L46.2857143,51.5769231 C46.2857143,52.3202692 46.8934429,52.9230769 47.6428571,52.9230769 C48.3922714,52.9230769 49,52.3202692 49,51.5769231 L49,39.4615385 C49,38.7181923 48.3922714,38.1153846 47.6428571,38.1153846 C46.8934429,38.1153846 46.2857143,38.7181923 46.2857143,39.4615385 L46.2857143,42.1538462 L32.7142857,42.1538462 L32.7142857,28.6923077 L38.1428571,28.6923077 L38.1428571,35.4230769 C38.1428571,36.1664231 38.7505857,36.7692308 39.5,36.7692308 C40.2494143,36.7692308 40.8571429,36.1664231 40.8571429,35.4230769 L40.8571429,28.6923077 L46.2857143,28.6923077 L46.2857143,31.3846154 C46.2857143,32.1279615 46.8934429,32.7307692 47.6428571,32.7307692 Z" id="Path"></path>
                <circle id="Oval" cx="40.5" cy="68.5" r="1.5"></circle>
                <path d="M62.4804688,9.0234375 C58.3341992,9.0234375 54.9609375,12.3966992 54.9609375,16.5429688 L54.9609375,17.2265625 L23.2421875,17.2265625 L23.2421875,11.6210938 C23.2421875,5.21322266 18.0289648,0 11.6210938,0 C5.21322266,0 0,5.21322266 0,11.6210938 L0,58.3789062 C0,64.7867773 5.21322266,70 11.6210938,70 L34.3162695,70 C35.0712305,70 35.683457,69.3877734 35.683457,68.6328125 C35.683457,67.8778516 35.0712305,67.265625 34.3162695,67.265625 L19.0938672,67.265625 C21.694668,65.0812695 23.2421875,61.8726172 23.2421875,58.3789062 L23.2421875,19.9609375 L54.9609375,19.9609375 L54.9609375,62.4804688 C54.9609375,63.2354297 55.5731641,63.8476562 56.328125,63.8476562 C57.0830859,63.8476562 57.6953125,63.2354297 57.6953125,62.4804688 C57.6953125,59.8419336 59.8419336,57.6953125 62.4804688,57.6953125 C65.1190039,57.6953125 67.265625,59.8419336 67.265625,62.4804688 C67.265625,65.1190039 65.1190039,67.265625 62.4804688,67.265625 L46.6212305,67.265625 C45.8662695,67.265625 45.254043,67.8778516 45.254043,68.6328125 C45.254043,69.3877734 45.8662695,70 46.6212305,70 L62.4804688,70 C66.6267383,70 70,66.6267383 70,62.4804688 L70,16.5429688 C70,12.3966992 66.6267383,9.0234375 62.4804688,9.0234375 Z M11.6210937,67.265625 C6.72095703,67.265625 2.734375,63.279043 2.734375,58.3789062 C2.734375,54.7512109 4.9546875,51.5317578 8.203125,50.1750977 L8.203125,56.328125 C8.203125,59.3435938 10.6564062,61.796875 13.671875,61.7955078 L19.8247656,61.7955078 C18.4679687,65.0454492 15.2486523,67.265625 11.6210937,67.265625 Z M20.4789648,59.0625 L13.671875,59.0625 C12.1641406,59.0625 10.9375,57.8358594 10.9375,56.328125 L10.9375,49.5210352 C11.1648633,49.5036719 11.3929102,49.4921875 11.6210938,49.4921875 C16.5212305,49.4921875 20.5078125,53.4787695 20.5078125,58.3789062 C20.5078125,58.6070898 20.4963281,58.8351367 20.4789648,59.0625 Z M20.5078125,50.9017578 C18.3743164,48.3701367 15.1831641,46.7578125 11.6210938,46.7578125 C8.12833984,46.7578125 4.91927734,48.3046484 2.734375,50.9061328 L2.734375,11.6210938 C2.734375,6.72095703 6.72095703,2.734375 11.6210938,2.734375 C16.5212305,2.734375 20.5078125,6.72095703 20.5078125,11.6210938 L20.5078125,50.9017578 Z M67.265625,56.6841406 C65.9644727,55.6081641 64.2967773,54.9609375 62.4804688,54.9609375 C60.6641602,54.9609375 58.9964648,55.6080273 57.6953125,56.6841406 L57.6953125,16.5429688 C57.6953125,13.9044336 59.8419336,11.7578125 62.4804688,11.7578125 C65.1190039,11.7578125 67.265625,13.9044336 67.265625,16.5429688 L67.265625,56.6841406 Z" id="Shape"></path>
            </g>
        </g>
    </g>
</svg>