<?xml version="1.0" encoding="UTF-8"?>
<svg width="48px" height="48px" viewBox="0 0 48 48" version="1.1" xmlns="http://www.w3.org/2000/svg" xmlns:xlink="http://www.w3.org/1999/xlink">
    <title>info-icon</title>
    <g id="Page-1" stroke="none" stroke-width="1" fill="none" fill-rule="evenodd">
        <g id="-" transform="translate(-626.000000, -59.000000)" fill="#007545" fill-rule="nonzero">
            <g id="info-icon" transform="translate(626.000000, 59.000000)">
                <path d="M35,14 C35,13.4480469 34.5519531,13 34,13 C33.4480469,13 33,13.4480469 33,14 C33,14.5519531 33.4480469,15 34,15 C34.5519531,15 35,14.5519531 35,14 Z" id="Path"></path>
                <path d="M24,0 C11.0690918,0 0,11.0361328 0,24 C0,36.9385987 11.0452881,48 24,48 C36.9385987,48 48,36.9547119 48,24 C48,11.0581055 36.9506836,0 24,0 Z M24,46.125 C12.006958,46.125 1.875,35.993042 1.875,24 C1.875,12.006958 12.006958,1.875 24,1.875 C35.993042,1.875 46.125,12.006958 46.125,24 C46.125,35.993042 35.993042,46.125 24,46.125 Z" id="Shape"></path>
                <path d="M24,4 C13.1336562,4 4,13.1175176 4,24 C4,34.8553404 13.1043134,44 24,44 C34.8663438,44 44,34.8824824 44,24 C44,13.1175176 34.8689114,4 24,4 Z M24,42.1220657 C14.1767899,42.1220657 5.87793427,33.8232101 5.87793427,24 C5.87793427,14.1767899 14.1767899,5.87793427 24,5.87793427 C33.8232101,5.87793427 42.1220657,14.1767899 42.1220657,24 C42.1220657,33.8232101 33.8232101,42.1220657 24,42.1220657 Z" id="Shape"></path>
                <path d="M36.3393738,16.4067871 C39.4571369,21.9038372 38.6030464,28.8950154 34.262851,33.4080031 C33.912383,33.7719714 33.912383,34.3625546 34.262851,34.7268872 C34.6129685,35.0908554 35.1810772,35.0912198 35.5315451,34.7268872 C40.4507135,29.6120219 41.4187061,21.6892453 37.8852879,15.4595223 C37.633652,15.015401 37.0837678,14.8674819 36.6568977,15.1298014 C36.2296773,15.3910279 36.0877377,15.96303 36.3393738,16.4067871 Z" id="Path"></path>
                <path d="M24,10 C21.7902344,10 20,11.7898438 20,14 C20,16.2054688 21.7945312,18 24,18 C26.2097656,18 28,16.2101562 28,14 C28,11.7902344 26.2101562,10 24,10 Z M24,16 C22.8972656,16 22,15.1027344 22,14 C22,12.8953125 22.8953125,12 24,12 C25.1046875,12 26,12.8953125 26,14 C26,15.1046875 25.1046875,16 24,16 Z" id="Shape"></path>
                <path d="M25,19 L23,19 C21.3457031,19 20,20.2784179 20,21.85 L20,35.15 C20,36.7215821 21.3457031,38 23,38 L25,38 C26.6542969,38 28,36.7215821 28,35.15 L28,21.85 C28,20.2784179 26.6542969,19 25,19 Z M26,35.15 C26,35.6739844 25.5515625,36.1 25,36.1 L23,36.1 C22.4484375,36.1 22,35.6739844 22,35.15 L22,21.85 C22,21.3260156 22.4484375,20.9 23,20.9 L25,20.9 C25.5515625,20.9 26,21.3260156 26,21.85 L26,35.15 Z" id="Shape"></path>
            </g>
        </g>
    </g>
</svg>