<?xml version="1.0" encoding="UTF-8"?>
<svg width="49px" height="35px" viewBox="0 0 49 35" version="1.1" xmlns="http://www.w3.org/2000/svg" xmlns:xlink="http://www.w3.org/1999/xlink">
    <title>people-icon</title>
    <g id="Page-1" stroke="none" stroke-width="1" fill="none" fill-rule="evenodd">
        <g id="-" transform="translate(-476.000000, -65.000000)" fill="#007545" fill-rule="nonzero">
            <g id="user" transform="translate(476.000000, 65.000000)">
                <path d="M23.9302326,0 C19.5316832,0 15.9534884,3.54511018 15.9534884,7.90322581 C15.9534884,12.2613414 19.5315763,15.8064516 23.9302326,15.8064516 C28.3288888,15.8064516 31.9069767,12.2612356 31.9069767,7.90322581 C31.9069767,3.54521603 28.3288888,0 23.9302326,0 Z M23.9302326,13.5483266 C20.789724,13.5483266 18.2326192,11.0147895 18.2326192,7.90322581 C18.2326192,4.79166208 20.789724,2.258125 23.9302326,2.258125 C27.0707411,2.258125 29.6278459,4.79166208 29.6278459,7.90322581 C29.6278459,11.0147895 27.0708479,13.5483266 23.9302326,13.5483266 Z" id="Shape"></path>
                <path d="M38.744186,9.03225806 C35.6036439,9.03225806 33.0465116,11.5658223 33.0465116,14.6774194 C33.0465116,17.7890164 35.6036439,20.3225806 38.744186,20.3225806 C41.8847282,20.3225806 44.4418605,17.7890164 44.4418605,14.6774194 C44.4418605,11.5658223 41.8847282,9.03225806 38.744186,9.03225806 Z M38.744186,18.0645373 C36.859348,18.0645373 35.32556,16.5448857 35.32556,14.6774194 C35.32556,12.809953 36.859348,11.2903014 38.744186,11.2903014 C40.6290241,11.2903014 42.1628121,12.809953 42.1628121,14.6774194 C42.1628121,16.5448857 40.6289173,18.0645373 38.744186,18.0645373 Z" id="Shape"></path>
                <path d="M9.11627907,9.03225806 C5.97338661,9.03225806 3.41860465,11.5658223 3.41860465,14.6774194 C3.41860465,17.7890164 5.97573691,20.3225806 9.11627907,20.3225806 C12.2568212,20.3225806 14.8139535,17.7890164 14.8139535,14.6774194 C14.8139535,11.5658223 12.2590647,9.03225806 9.11627907,9.03225806 Z M9.11627907,18.0645373 C7.23144098,18.0645373 5.69765305,16.5448857 5.69765305,14.6774194 C5.69765305,12.809953 7.23144098,11.2903014 9.11627907,11.2903014 C11.0011172,11.2903014 12.5349051,12.809953 12.5349051,14.6774194 C12.5349051,16.5448857 11.0010103,18.0645373 9.11627907,18.0645373 Z" id="Shape"></path>
                <path d="M24.5,19.1935484 C16.0176364,19.1935484 9.11627907,25.7780351 9.11627907,33.8709375 C9.11627907,34.4941605 9.64646147,35 10.2996764,35 C10.9528912,35 11.4830736,34.4941605 11.4830736,33.8709375 C11.4830736,27.0222584 17.3217364,21.4516734 24.5,21.4516734 C31.6782636,21.4516734 37.5169264,27.0222584 37.5169264,33.8709375 C37.5169264,34.4941605 38.0471088,35 38.7003236,35 C39.3535385,35 39.8837209,34.4941605 39.8837209,33.8709375 C39.8837209,25.7780351 32.9823636,19.1935484 24.5,19.1935484 Z" id="Path"></path>
                <path d="M40.2978769,23.7096774 C38.706402,23.7096774 37.1477411,24.2177403 35.790224,25.1774501 C35.3358148,25.5026103 35.1887867,26.1957987 35.4653481,26.7287355 C35.7457168,27.2616724 36.337455,27.4310267 36.7938584,27.1080892 C37.8477108,26.3606016 39.0582905,25.9676996 40.2978769,25.9676996 C44.0300517,25.9676996 47.0661546,29.5128145 47.0661546,33.870936 C47.0661546,34.4941598 47.4993526,35 48.0330773,35 C48.5668019,35 49,34.4941598 49,33.870936 C49,28.2686954 45.0955974,23.7096774 40.2978769,23.7096774 Z" id="Path"></path>
                <path d="M13.2084651,25.1751214 C11.8527814,24.2177403 10.2941305,23.7096774 8.7024827,23.7096774 C3.9045139,23.7096774 0,28.2686954 0,33.870936 C0,34.4941598 0.433220467,35 0.966972739,35 C1.50072501,35 1.93394548,34.4941598 1.93394548,33.870936 C1.93385483,29.5128145 4.97011478,25.9676996 8.7024827,25.9676996 C9.94213323,25.9676996 11.1526848,26.3606016 12.2047787,27.1057606 C12.6592115,27.4286981 13.2548783,27.2593437 13.5333578,26.7264069 C13.8118372,26.1934701 13.6648015,25.5002817 13.2084651,25.1751214 Z" id="Path"></path>
            </g>
        </g>
    </g>
</svg>