<?xml version="1.0" encoding="UTF-8"?>
<svg width="48px" height="48px" viewBox="0 0 48 48" version="1.1" xmlns="http://www.w3.org/2000/svg" xmlns:xlink="http://www.w3.org/1999/xlink">
    <title>project-icon</title>
    <g id="Page-1" stroke="none" stroke-width="1" fill="none" fill-rule="evenodd">
        <g id="-" transform="translate(-400.000000, -59.000000)" fill="#007545" fill-rule="nonzero">
            <g id="project-icon" transform="translate(400.000000, 59.000000)">
                <path d="M33.0714286,22.6153846 C33.5841857,22.6153846 34,22.2020308 34,21.6923077 L34,18.9230769 C34,18.4133538 33.5841857,18 33.0714286,18 L21.9285714,18 C21.4158143,18 21,18.4133538 21,18.9230769 L21,41.0769231 C21,41.5866462 21.4158143,42 21.9285714,42 L33.0714286,42 C33.5841857,42 34,41.5866462 34,41.0769231 C34,40.5672 33.5841857,40.1538462 33.0714286,40.1538462 L22.8571429,40.1538462 L22.8571429,36.4615385 L27.5,36.4615385 C28.0127571,36.4615385 28.4285714,36.0481846 28.4285714,35.5384615 C28.4285714,35.0287385 28.0127571,34.6153846 27.5,34.6153846 L22.8571429,34.6153846 L22.8571429,30.9230769 L32.1428571,30.9230769 L32.1428571,35.5384615 C32.1428571,36.0481846 32.5586714,36.4615385 33.0714286,36.4615385 C33.5841857,36.4615385 34,36.0481846 34,35.5384615 L34,27.2307692 C34,26.7210462 33.5841857,26.3076923 33.0714286,26.3076923 C32.5586714,26.3076923 32.1428571,26.7210462 32.1428571,27.2307692 L32.1428571,29.0769231 L22.8571429,29.0769231 L22.8571429,19.8461538 L26.5714286,19.8461538 L26.5714286,24.4615385 C26.5714286,24.9712615 26.9872429,25.3846154 27.5,25.3846154 C28.0127571,25.3846154 28.4285714,24.9712615 28.4285714,24.4615385 L28.4285714,19.8461538 L32.1428571,19.8461538 L32.1428571,21.6923077 C32.1428571,22.2020308 32.5586714,22.6153846 33.0714286,22.6153846 Z" id="Path"></path>
                <circle id="Oval" cx="28" cy="47" r="1"></circle>
                <path d="M42.84375,6.1875 C40.0005938,6.1875 37.6875,8.50059375 37.6875,11.34375 L37.6875,11.8125 L15.9375,11.8125 L15.9375,7.96875 C15.9375,3.57478125 12.3627187,0 7.96875,0 C3.57478125,0 0,3.57478125 0,7.96875 L0,40.03125 C0,44.4252187 3.57478125,48 7.96875,48 L23.5311562,48 C24.0488438,48 24.4686563,47.5801875 24.4686563,47.0625 C24.4686563,46.5448125 24.0488438,46.125 23.5311563,46.125 L13.0929375,46.125 C14.8763438,44.6271562 15.9375,42.4269375 15.9375,40.03125 L15.9375,13.6875 L37.6875,13.6875 L37.6875,42.84375 C37.6875,43.3614375 38.1073125,43.78125 38.625,43.78125 C39.1426875,43.78125 39.5625,43.3614375 39.5625,42.84375 C39.5625,41.0344688 41.0344688,39.5625 42.84375,39.5625 C44.6530312,39.5625 46.125,41.0344688 46.125,42.84375 C46.125,44.6530312 44.6530312,46.125 42.84375,46.125 L31.9688437,46.125 C31.4511562,46.125 31.0313437,46.5448125 31.0313437,47.0625 C31.0313437,47.5801875 31.4511562,48 31.9688437,48 L42.84375,48 C45.6869062,48 48,45.6869062 48,42.84375 L48,11.34375 C48,8.50059375 45.6869062,6.1875 42.84375,6.1875 Z M7.96875,46.125 C4.60865625,46.125 1.875,43.3913438 1.875,40.03125 C1.875,37.5436875 3.3975,35.3360625 5.625,34.4057813 L5.625,38.625 C5.625,40.69275 7.30725,42.375 9.375,42.3740625 L13.594125,42.3740625 C12.66375,44.6025938 10.4562187,46.125 7.96875,46.125 Z M14.0427187,40.5 L9.375,40.5 C8.341125,40.5 7.5,39.658875 7.5,38.625 L7.5,33.9572813 C7.65590625,33.945375 7.81228125,33.9375 7.96875,33.9375 C11.3288437,33.9375 14.0625,36.6711562 14.0625,40.03125 C14.0625,40.1877188 14.054625,40.3440937 14.0427187,40.5 Z M14.0625,34.9040625 C12.5995313,33.1680937 10.4113125,32.0625 7.96875,32.0625 C5.57371875,32.0625 3.37321875,33.1231875 1.875,34.9070625 L1.875,7.96875 C1.875,4.60865625 4.60865625,1.875 7.96875,1.875 C11.3288438,1.875 14.0625,4.60865625 14.0625,7.96875 L14.0625,34.9040625 Z M46.125,38.869125 C45.2327813,38.1313125 44.0892188,37.6875 42.84375,37.6875 C41.5982812,37.6875 40.4547187,38.1312187 39.5625,38.869125 L39.5625,11.34375 C39.5625,9.53446875 41.0344688,8.0625 42.84375,8.0625 C44.6530312,8.0625 46.125,9.53446875 46.125,11.34375 L46.125,38.869125 Z" id="Shape"></path>
            </g>
        </g>
    </g>
</svg>